<?xml version="1.0" encoding="utf-8"?>
<!-- Generator: Adobe Illustrator 19.2.1, SVG Export Plug-In . SVG Version: 6.00 Build 0)  -->
<svg version="1.1" id="Capa_1" xmlns="http://www.w3.org/2000/svg" xmlns:xlink="http://www.w3.org/1999/xlink" x="0px" y="0px"
	 viewBox="0 0 200 200" style="enable-background:new 0 0 200 200;" xml:space="preserve">
<style type="text/css">
	.st0{fill:#E2650E;}
	.st1{fill:#FFFFFF;}
	.st2{fill:#CCCCCC;}
</style>
<path class="st0" d="M187,97.1c0-8.8-2.7-17.1-7.8-24.9c-4.6-7-11-13.1-19.2-18.5c-15.8-10.1-36.3-15.6-58.2-15.6
	c-7.2,0-14.5,0.6-21.5,1.9c-4.4-4-9.3-7.6-14.6-10.7c-28.5-13.7-52.3-0.2-52.3-0.2s22.1,18.1,18.5,34.1
	c-9.9,9.7-15.2,21.5-15.2,33.9c0,0,0,0,0,0.2c0,0,0,0,0,0.2c0,12.4,5.3,24.2,15.2,33.9c3.6,15.8-18.5,33.9-18.5,33.9
	s23.8,13.5,52.3-0.4c5.3-2.9,10.5-6.5,14.6-10.7c7,1.1,14.1,1.9,21.5,1.9c21.9,0,42.4-5.5,58.2-15.6c8.2-5.1,14.6-11.4,19.2-18.5
	C184.3,114.2,187,105.9,187,97.1C187,97.3,187,97.3,187,97.1L187,97.1z"/>
<path class="st1" d="M101.8,50.5c40.3,0,73.1,20.9,73.1,46.8s-32.7,46.8-73.1,46.8c-8.9,0-17.7-1-25.5-2.9
	c-8.2,9.7-25.9,23.2-43.2,18.8C38.8,154,47,143.9,45.3,127c-10.3-8-16.6-18.5-16.6-29.7C28.7,71.4,61.4,50.5,101.8,50.5"/>
<g>
	<g>
		<circle class="st0" cx="101.8" cy="98.8" r="9.7"/>
	</g>
	<g>
		<circle class="st0" cx="135.6" cy="98.8" r="9.7"/>
	</g>
	<g>
		<circle class="st0" cx="68.1" cy="98.8" r="9.7"/>
	</g>
</g>
<g>
	<path class="st2" d="M101.8,137.8c-8.9,0-17.7-1-25.5-2.5c-7.2,7.4-21.9,17.5-37.1,17.1c-2.1,3-4.2,5.5-6.1,7.6
		c17.3,4.4,35-9.1,43.2-18.8c8,1.9,16.6,2.9,25.5,2.9c40.1,0,72.7-20.7,73.2-46.2C174.4,120.1,141.9,137.8,101.8,137.8z"/>
</g>
</svg>
