<?xml version="1.0" encoding="utf-8"?>
<!-- Generator: Adobe Illustrator 19.2.1, SVG Export Plug-In . SVG Version: 6.00 Build 0)  -->
<svg version="1.1" id="Layer_5" xmlns="http://www.w3.org/2000/svg" xmlns:xlink="http://www.w3.org/1999/xlink" x="0px" y="0px"
	 viewBox="0 0 518.1 418.8" style="enable-background:new 0 0 518.1 418.8;" xml:space="preserve">
<style type="text/css">
	.st0{fill:none;}
	.st1{fill:#E2650E;}
	.st2{fill:#FFFFFF;}
	.st3{fill:#CCCCCC;}
</style>
<path class="st0" d="M182,93"/>
<line class="st0" x1="-15.5" y1="62.5" x2="-15.5" y2="479.2"/>
<path class="st1" d="M487,210.9c0-22.7-6.9-44.5-20.3-64.7c-11.9-18.3-28.6-34.1-49.9-47.9c-41-26.2-94.3-40.5-151.1-40.5
	c-18.8,0-37.5,1.5-55.8,4.9c-11.4-10.4-24.2-19.8-38-27.7C97.7-0.5,36,34.5,36,34.5S93.3,81.5,83.9,123
	c-25.7,25.2-39.5,55.8-39.5,87.9c0,0,0,0,0,0.5c0,0,0,0,0,0.5c0,32.1,13.8,62.7,39.5,87.9c9.4,41-47.9,87.9-47.9,87.9
	s61.7,35.1,135.8-1c13.8-7.4,27.2-16.8,38-27.7c18.3,3,36.6,4.9,55.8,4.9c56.8,0,110.1-14.3,151.1-40.5c21.2-13.3,38-29.6,49.9-47.9
	C480.1,255.3,487,233.6,487,210.9C487,211.4,487,211.4,487,210.9L487,210.9z"/>
<path class="st2" d="M265.7,89.9c104.7,0,189.7,54.3,189.7,121.5s-85,121.5-189.7,121.5c-23.2,0-45.9-2.5-66.2-7.4
	c-21.2,25.2-67.2,60.3-112.1,48.9c14.8-15.8,36.1-42,31.6-85.9c-26.7-20.7-43-47.9-43-77.1C76,144.2,161,89.9,265.7,89.9"/>
<g>
	<g>
		<circle class="st1" cx="265.7" cy="215.3" r="25.2"/>
	</g>
	<g>
		<circle class="st1" cx="353.6" cy="215.3" r="25.2"/>
	</g>
	<g>
		<circle class="st1" cx="178.3" cy="215.3" r="25.2"/>
	</g>
</g>
<g>
	<path class="st3" d="M265.7,316.6c-23.2,0-45.9-2.5-66.2-6.4c-18.8,19.3-56.8,45.4-96.3,44.5c-5.4,7.9-10.9,14.3-15.8,19.8
		c44.9,11.4,90.9-23.7,112.1-48.9c20.7,4.9,43,7.4,66.2,7.4c104.2,0,188.7-53.8,190.2-120C454.4,270.6,369.9,316.6,265.7,316.6z"/>
</g>
</svg>
