<?xml version="1.0" encoding="utf-8"?>
<!-- Generator: Adobe Illustrator 19.2.1, SVG Export Plug-In . SVG Version: 6.00 Build 0)  -->
<svg version="1.1" id="Layer_5" xmlns="http://www.w3.org/2000/svg" xmlns:xlink="http://www.w3.org/1999/xlink" x="0px" y="0px"
	 viewBox="0 0 512 512" style="enable-background:new 0 0 512 512;" xml:space="preserve">
<style type="text/css">
	.st0{fill:#E2650E;}
	.st1{fill:#FFFFFF;}
	.st2{fill:#CCCCCC;}
</style>
<path class="st0" d="M485.5,248.1c0-24.1-7.2-47.1-21-67.1c-13.8-20-31.2-36.9-51.7-49.2c-42-27.1-97.8-42-156.7-42
	c-19.5,0-38.4,1.5-57.9,5.1c-11.8-11.3-25.1-20.5-39.9-28.7c-43.5-22-95.8-22.5-140.3-1c0,0,59.4,48.6,49.7,91.7
	c-26.6,26.6-41,58.4-41,91.1v0.5c0,33.3,14.3,65,41,91.1c9.7,43-49.7,91.7-49.7,91.7c44.5,21.5,96.8,21.5,140.8-1
	c14.3-7.7,27.6-17.4,39.9-28.7c18.9,3.6,38.4,5.1,57.9,5.1c58.9,0,114.2-14.8,156.7-42c20.5-12.8,38.4-29.7,51.7-49.7
	c13.3-20,21-43,21-67.1L485.5,248.1L485.5,248.1z"/>
<path class="st1" d="M256.1,123.2c108.6,0,197.1,56.3,197.1,126s-88.1,125.4-197.1,125.4c-23,0-46.1-2.6-68.6-7.7
	c-22,26.1-69.6,62.5-116.2,50.7c15.4-16.4,37.4-43.5,32.8-89.1c-28.2-21.5-44.5-49.7-44.5-79.9C59.5,179.5,147.5,123.2,256.1,123.2"
	/>
<circle class="st0" cx="256.1" cy="252.7" r="26.1"/>
<circle class="st0" cx="347.2" cy="252.7" r="26.1"/>
<circle class="st0" cx="165.5" cy="252.7" r="26.1"/>
<path class="st2" d="M256.1,357.7c-23,0-46.1-2-68.6-6.7c-19.5,20-58.9,47.1-99.8,46.1c-4.6,7.2-10.2,14.3-16.4,20.5
	c46.6,11.8,94.2-24.6,116.2-50.7c22.5,5.1,45.6,8.2,68.6,7.7c108,0,195.6-55.8,197.1-124.4C451.7,310.1,364.1,357.7,256.1,357.7z"/>
</svg>
