<?xml version="1.0" encoding="utf-8"?>
<!-- Generator: Adobe Illustrator 19.2.1, SVG Export Plug-In . SVG Version: 6.00 Build 0)  -->
<svg version="1.1" id="Layer_1" xmlns="http://www.w3.org/2000/svg" xmlns:xlink="http://www.w3.org/1999/xlink" x="0px" y="0px"
	 viewBox="0 0 435.7 85.2" style="enable-background:new 0 0 435.7 85.2;" xml:space="preserve">
<style type="text/css">
	.st0{fill:#E2650E;}
	.st1{fill:#FFFFFF;}
	.st2{fill:#CCCCCC;}
	.st3{fill:#04436A;}
</style>
<path class="st0" d="M99.8,42.6c0-4.6-1.4-9-4.1-13.1c-2.4-3.7-5.8-6.9-10.1-9.7c-8.3-5.3-19.1-8.2-30.6-8.2c-3.8,0-7.6,0.3-11.3,1
	c-2.3-2.1-4.9-4-7.7-5.6C21-0.2,8.5,6.9,8.5,6.9s11.6,9.5,9.7,17.9c-5.2,5.1-8,11.3-8,17.8c0,0,0,0,0,0.1c0,0,0,0,0,0.1
	c0,6.5,2.8,12.7,8,17.8c1.9,8.3-9.7,17.8-9.7,17.8S21,85.5,36,78.2c2.8-1.5,5.5-3.4,7.7-5.6c3.7,0.6,7.4,1,11.3,1
	c11.5,0,22.3-2.9,30.6-8.2c4.3-2.7,7.7-6,10.1-9.7C98.4,51.6,99.8,47.2,99.8,42.6C99.8,42.7,99.8,42.7,99.8,42.6L99.8,42.6z"/>
<path class="st1" d="M55,18.1c21.2,0,38.4,11,38.4,24.6S76.2,67.3,55,67.3c-4.7,0-9.3-0.5-13.4-1.5C37.3,70.9,28,78,18.9,75.7
	c3-3.2,7.3-8.5,6.4-17.4c-5.4-4.2-8.7-9.7-8.7-15.6C16.6,29.1,33.8,18.1,55,18.1"/>
<g>
	<g>
		<circle class="st0" cx="55" cy="43.5" r="5.1"/>
	</g>
	<g>
		<circle class="st0" cx="72.8" cy="43.5" r="5.1"/>
	</g>
	<g>
		<circle class="st0" cx="37.3" cy="43.5" r="5.1"/>
	</g>
</g>
<g>
	<path class="st2" d="M55,64c-4.7,0-9.3-0.5-13.4-1.3c-3.8,3.9-11.5,9.2-19.5,9c-1.1,1.6-2.2,2.9-3.2,4c9.1,2.3,18.4-4.8,22.7-9.9
		c4.2,1,8.7,1.5,13.4,1.5c21.1,0,38.2-10.9,38.5-24.3C93.2,54.7,76.1,64,55,64z"/>
</g>
<g>
	<path class="st3" d="M126.2,13.9V59c0,4.2,1.8,5.7,4.8,5.7c2.9,0,4.8-1.5,4.8-5.7V13.9h8.7v44.5c0,9.3-4.7,14.7-13.7,14.7
		s-13.7-5.3-13.7-14.7V13.9H126.2z"/>
	<path class="st3" d="M169.8,72.3c-0.5-1.5-0.8-2.4-0.8-7.2V56c0-5.4-1.8-7.4-6-7.4h-3.2v23.8h-9.2V13.9h13.9
		c9.5,0,13.6,4.4,13.6,13.4v4.6c0,6-1.9,9.8-6,11.8v0.2c4.6,1.9,6.1,6.3,6.1,12.4v9c0,2.8,0.1,4.9,1,7.1L169.8,72.3L169.8,72.3z
		 M159.8,22.3v17.9h3.6c3.4,0,5.5-1.5,5.5-6.2v-5.8c0-4.2-1.4-6-4.7-6h-4.4V22.3z"/>
	<path class="st3" d="M213.9,72.3h-9.3L203,61.7h-11.3l-1.6,10.6h-8.4l9.3-58.4h13.5L213.9,72.3z M192.9,53.8h8.8l-4.3-29.5h-0.2
		L192.9,53.8z"/>
	<path class="st3" d="M245.6,27.4v2.1c0,6-1.8,9.8-5.9,11.7v0.2c4.9,1.9,6.8,6.3,6.8,12.4v4.8c0,9-4.8,13.9-13.9,13.9h-14.4V13.9
		h13.9C241.5,13.9,245.6,18.3,245.6,27.4z M227.3,22.3v15.4h3.6c3.4,0,5.5-1.5,5.5-6.2v-3.3c0-4.2-1.4-6-4.7-6h-4.4V22.3z
		 M227.3,46.1V64h5.3c3.1,0,4.8-1.4,4.8-5.8v-5.1c0-5.4-1.8-7.1-5.9-7.1L227.3,46.1L227.3,46.1z"/>
	<path class="st3" d="M281.7,72.3h-9.2l-1.6-10.6h-11.3L258,72.3h-8.4l9.3-58.4h13.4L281.7,72.3z M260.8,53.8h8.8l-4.3-29.5h-0.2
		L260.8,53.8z"/>
	<path class="st3" d="M294.8,63.5v8.8H286v-8.8C286,63.5,294.8,63.5,294.8,63.5z"/>
	<path class="st3" d="M327.3,50.6v7.8c0,9.3-4.7,14.7-13.7,14.7s-13.7-5.3-13.7-14.7V27.9c0-9.3,4.7-14.7,13.7-14.7
		s13.7,5.3,13.7,14.7v5.7h-8.7v-6.3c0-4.2-1.8-5.8-4.8-5.8c-2.9,0-4.8,1.6-4.8,5.8v31.5c0,4.2,1.8,5.7,4.8,5.7
		c2.9,0,4.8-1.5,4.8-5.7v-8.3L327.3,50.6L327.3,50.6z"/>
	<path class="st3" d="M342.1,72.3h-9.2V13.9h9.2v25h10.4v-25h9.3v58.4h-9.3v-25h-10.4V72.3z"/>
	<path class="st3" d="M398.2,72.3h-9.3l-1.6-10.6H376l-1.5,10.6h-8.4l9.3-58.4h13.4L398.2,72.3z M377.3,53.8h8.8l-4.3-29.5h-0.2
		L377.3,53.8z"/>
	<path class="st3" d="M396.6,13.9H425v8.3h-9.6v50.1h-9.2v-50h-9.6L396.6,13.9L396.6,13.9z"/>
</g>
</svg>
