<?xml version="1.0" encoding="utf-8"?>
<!-- Generator: Adobe Illustrator 19.2.1, SVG Export Plug-In . SVG Version: 6.00 Build 0)  -->
<svg version="1.1" id="Layer_1" xmlns="http://www.w3.org/2000/svg" xmlns:xlink="http://www.w3.org/1999/xlink" x="0px" y="0px"
	 viewBox="0 0 435.7 85.2" style="enable-background:new 0 0 435.7 85.2;" xml:space="preserve">
<style type="text/css">
	.st0{fill:#E2650E;}
	.st1{fill:#FFFFFF;}
	.st2{fill:#CCCCCC;}
	.st3{fill:#F4F4F4;}
</style>
<path class="st0" d="M101.3,42.6c0-4.6-1.4-9-4.1-13.1c-2.4-3.7-5.8-6.9-10.1-9.7c-8.3-5.3-19.1-8.2-30.6-8.2c-3.8,0-7.6,0.3-11.3,1
	c-2.3-2.1-4.9-4-7.7-5.6C22.5-0.2,10,6.9,10,6.9s11.6,9.5,9.7,17.9c-5.2,5.1-8,11.3-8,17.8c0,0,0,0,0,0.1c0,0,0,0,0,0.1
	c0,6.5,2.8,12.7,8,17.8c1.9,8.3-9.7,17.8-9.7,17.8s12.5,7.1,27.5-0.2c2.8-1.5,5.5-3.4,7.7-5.6c3.7,0.6,7.4,1,11.3,1
	c11.5,0,22.3-2.9,30.6-8.2c4.3-2.7,7.7-6,10.1-9.7C99.9,51.6,101.3,47.2,101.3,42.6C101.3,42.7,101.3,42.7,101.3,42.6L101.3,42.6z"
	/>
<path class="st1" d="M56.5,18.1c21.2,0,38.4,11,38.4,24.6S77.7,67.3,56.5,67.3c-4.7,0-9.3-0.5-13.4-1.5c-4.3,5.1-13.6,12.2-22.7,9.9
	c3-3.2,7.3-8.5,6.4-17.4c-5.4-4.2-8.7-9.7-8.7-15.6C18.1,29.1,35.3,18.1,56.5,18.1"/>
<g>
	<g>
		<circle class="st0" cx="56.5" cy="43.5" r="5.1"/>
	</g>
	<g>
		<circle class="st0" cx="74.3" cy="43.5" r="5.1"/>
	</g>
	<g>
		<circle class="st0" cx="38.8" cy="43.5" r="5.1"/>
	</g>
</g>
<g>
	<path class="st2" d="M56.5,64c-4.7,0-9.3-0.5-13.4-1.3c-3.8,3.9-11.5,9.2-19.5,9c-1.1,1.6-2.2,2.9-3.2,4c9.1,2.3,18.4-4.8,22.7-9.9
		c4.2,1,8.7,1.5,13.4,1.5C77.6,67.3,94.7,56.4,95,43C94.7,54.7,77.6,64,56.5,64z"/>
</g>
<g>
	<path class="st3" d="M127.7,13.9V59c0,4.2,1.8,5.7,4.8,5.7c2.9,0,4.8-1.5,4.8-5.7V13.9h8.7v44.5c0,9.3-4.7,14.7-13.7,14.7
		s-13.7-5.3-13.7-14.7V13.9H127.7z"/>
	<path class="st3" d="M171.3,72.3c-0.5-1.5-0.8-2.4-0.8-7.2V56c0-5.4-1.8-7.4-6-7.4h-3.2v23.8h-9.2V13.9H166
		c9.5,0,13.6,4.4,13.6,13.4v4.6c0,6-1.9,9.8-6,11.8v0.2c4.6,1.9,6.1,6.3,6.1,12.4v9c0,2.8,0.1,4.9,1,7.1L171.3,72.3L171.3,72.3z
		 M161.3,22.3v17.9h3.6c3.4,0,5.5-1.5,5.5-6.2v-5.8c0-4.2-1.4-6-4.7-6h-4.4V22.3z"/>
	<path class="st3" d="M215.4,72.3h-9.3l-1.6-10.6h-11.3l-1.6,10.6h-8.4l9.3-58.4H206L215.4,72.3z M194.4,53.8h8.8l-4.3-29.5h-0.2
		L194.4,53.8z"/>
	<path class="st3" d="M247.1,27.4v2.1c0,6-1.8,9.8-5.9,11.7v0.2c4.9,1.9,6.8,6.3,6.8,12.4v4.8c0,9-4.8,13.9-13.9,13.9h-14.4V13.9
		h13.9C243,13.9,247.1,18.3,247.1,27.4z M228.8,22.3v15.4h3.6c3.4,0,5.5-1.5,5.5-6.2v-3.3c0-4.2-1.4-6-4.7-6h-4.4V22.3z M228.8,46.1
		V64h5.3c3.1,0,4.8-1.4,4.8-5.8v-5.1c0-5.4-1.8-7.1-5.9-7.1L228.8,46.1L228.8,46.1z"/>
	<path class="st3" d="M283.2,72.3H274l-1.6-10.6h-11.3l-1.6,10.6h-8.4l9.3-58.4h13.4L283.2,72.3z M262.3,53.8h8.8l-4.3-29.5h-0.2
		L262.3,53.8z"/>
	<path class="st3" d="M296.3,63.5v8.8h-8.8v-8.8C287.5,63.5,296.3,63.5,296.3,63.5z"/>
	<path class="st3" d="M328.8,50.6v7.8c0,9.3-4.7,14.7-13.7,14.7s-13.7-5.3-13.7-14.7V27.9c0-9.3,4.7-14.7,13.7-14.7
		s13.7,5.3,13.7,14.7v5.7h-8.7v-6.3c0-4.2-1.8-5.8-4.8-5.8c-2.9,0-4.8,1.6-4.8,5.8v31.5c0,4.2,1.8,5.7,4.8,5.7
		c2.9,0,4.8-1.5,4.8-5.7v-8.3L328.8,50.6L328.8,50.6z"/>
	<path class="st3" d="M343.6,72.3h-9.2V13.9h9.2v25H354v-25h9.3v58.4H354v-25h-10.4V72.3z"/>
	<path class="st3" d="M399.7,72.3h-9.3l-1.6-10.6h-11.3L376,72.3h-8.4l9.3-58.4h13.4L399.7,72.3z M378.8,53.8h8.8l-4.3-29.5h-0.2
		L378.8,53.8z"/>
	<path class="st3" d="M398.1,13.9h28.4v8.3h-9.6v50.1h-9.2v-50h-9.6L398.1,13.9L398.1,13.9z"/>
</g>
</svg>
