<?xml version="1.0" encoding="utf-8"?>
<!-- Generator: Adobe Illustrator 19.2.1, SVG Export Plug-In . SVG Version: 6.00 Build 0)  -->
<svg version="1.1" id="Layer_1" xmlns="http://www.w3.org/2000/svg" xmlns:xlink="http://www.w3.org/1999/xlink" x="0px" y="0px"
	 viewBox="0 0 319 51.3" style="enable-background:new 0 0 319 51.3;" xml:space="preserve">
<style type="text/css">
	.st0{fill:#333333;}
</style>
<g>
	<path class="st0" d="M14.8,2.4v36.5c0,3.4,1.8,4.6,4.8,4.6c2.9,0,4.8-1.2,4.8-4.6V2.4h8.7v36c0,7.5-4.7,11.9-13.8,11.9
		S5.7,46,5.7,38.4v-36H14.8z"/>
	<path class="st0" d="M58.6,49.7c-0.5-1.2-0.8-1.9-0.8-5.8v-7.4c0-4.4-1.8-6-6-6h-3.2v19.3h-9.2V2.4h14C62.8,2.4,67,6,67,13.2V17
		c0,4.9-1.9,7.9-6,9.5v0.2c4.6,1.5,6.1,5.1,6.1,10V44c0,2.3,0.1,4,1,5.7L58.6,49.7L58.6,49.7z M48.6,9.2v14.5h3.6
		c3.4,0,5.5-1.2,5.5-5V14c0-3.4-1.4-4.9-4.7-4.9L48.6,9.2L48.6,9.2z"/>
	<path class="st0" d="M102.9,49.7h-9.3L92,41.1H80.6L79,49.7h-8.4l9.3-47.3h13.6L102.9,49.7z M81.8,34.7h8.8l-4.3-23.9h-0.2
		L81.8,34.7z"/>
	<path class="st0" d="M134.8,13.3V15c0,4.9-1.8,7.9-5.9,9.5v0.2c4.9,1.5,6.8,5.1,6.8,10v3.9c0,7.3-4.8,11.2-14,11.2h-14.5V2.4h14
		C130.6,2.4,134.8,6,134.8,13.3z M116.4,9.2v12.5h3.6c3.4,0,5.5-1.2,5.5-5V14c0-3.4-1.4-4.9-4.7-4.9L116.4,9.2L116.4,9.2z
		 M116.4,28.5v14.5h5.3c3.1,0,4.8-1.1,4.8-4.7v-4.1c0-4.4-1.8-5.7-5.9-5.7L116.4,28.5L116.4,28.5z"/>
	<path class="st0" d="M171,49.7h-9.2l-1.6-8.6h-11.4l-1.6,8.6h-8.4l9.3-47.3h13.5L171,49.7z M150,34.7h8.8l-4.3-23.9h-0.2L150,34.7z
		"/>
	<path class="st0" d="M184.2,42.5v7.1h-8.8v-7.1C175.4,42.5,184.2,42.5,184.2,42.5z"/>
	<path class="st0" d="M216.8,32.1v6.3c0,7.5-4.7,11.9-13.8,11.9c-9,0-13.8-4.3-13.8-11.9V13.7c0-7.5,4.7-11.9,13.8-11.9
		c9,0,13.8,4.3,13.8,11.9v4.6h-8.7v-5.1c0-3.4-1.8-4.7-4.8-4.7c-2.9,0-4.8,1.3-4.8,4.7v25.5c0,3.4,1.8,4.6,4.8,4.6
		c2.9,0,4.8-1.2,4.8-4.6V32L216.8,32.1L216.8,32.1z"/>
	<path class="st0" d="M231.7,49.7h-9.2V2.4h9.2v20.2h10.4V2.4h9.3v47.3h-9.3V29.4h-10.4V49.7z"/>
	<path class="st0" d="M288.1,49.7h-9.3l-1.6-8.6h-11.4l-1.5,8.6h-8.4l9.3-47.3h13.5L288.1,49.7z M267.1,34.7h8.8l-4.3-23.9h-0.2
		L267.1,34.7z"/>
	<path class="st0" d="M286.5,2.4H315v6.7h-9.6v40.5h-9.2V9.2h-9.6L286.5,2.4L286.5,2.4z"/>
</g>
</svg>
